<svg xmlns="http://www.w3.org/2000/svg" xmlns:xlink="http://www.w3.org/1999/xlink" width="480" zoomAndPan="magnify" viewBox="0 0 360 69.749997" height="93" preserveAspectRatio="xMidYMid meet" version="1.0"><defs><g/><clipPath id="9fa4037b49"><path d="M 11 4.128906 L 45 4.128906 L 45 44 L 11 44 Z M 11 4.128906 " clip-rule="nonzero"/></clipPath><clipPath id="4f4926b0a2"><path d="M 42 45 L 71.863281 45 L 71.863281 54 L 42 54 Z M 42 45 " clip-rule="nonzero"/></clipPath><clipPath id="e96d768247"><path d="M 7.59375 45 L 38 45 L 38 54 L 7.59375 54 Z M 7.59375 45 " clip-rule="nonzero"/></clipPath><clipPath id="8fa1aef8dc"><path d="M 41 52 L 58 52 L 58 65.40625 L 41 65.40625 Z M 41 52 " clip-rule="nonzero"/></clipPath><clipPath id="40630301a0"><path d="M 23 52 L 40 52 L 40 65.40625 L 23 65.40625 Z M 23 52 " clip-rule="nonzero"/></clipPath></defs><g clip-path="url(#9fa4037b49)"><path fill="#00a86b" d="M 39.996094 4.128906 C 31.890625 19.191406 34.238281 34.367188 34.871094 37.605469 C 31.445312 33.171875 23.703125 24.761719 11.683594 20.558594 C 11.683594 20.558594 14.222656 30.234375 23.101562 38.433594 C 23.101562 38.433594 17.058594 29.261719 15.859375 25.765625 C 15.480469 24.664062 15.738281 24.722656 16.546875 25.132812 C 28.550781 31.210938 37.511719 43.78125 37.511719 43.78125 L 36.957031 40.742188 C 36.445312 35.773438 35.558594 22.167969 39.609375 11.265625 C 39.949219 10.351562 40.117188 10.113281 40.671875 11.246094 C 42.4375 14.835938 44.699219 26.40625 44.699219 26.40625 C 45.527344 13.484375 39.996094 4.128906 39.996094 4.128906 Z M 39.996094 4.128906 " fill-opacity="1" fill-rule="nonzero"/></g><path fill="#00a86b" d="M 41.335938 44.8125 C 41.335938 44.8125 51.179688 31.214844 63.183594 25.132812 C 63.992188 24.726562 64.25 24.667969 63.871094 25.769531 C 62.671875 29.261719 56.625 38.4375 56.625 38.4375 C 65.507812 30.234375 68.042969 20.5625 68.042969 20.5625 C 51.261719 26.429688 42.820312 40.496094 42.820312 40.496094 Z M 41.335938 44.8125 " fill-opacity="1" fill-rule="nonzero"/><g clip-path="url(#4f4926b0a2)"><path fill="#00a86b" d="M 66.21875 49.726562 C 55.0625 52.882812 42.050781 50.148438 42.050781 50.148438 L 44.347656 51.878906 C 44.347656 51.878906 57.90625 55.867188 71.964844 49.789062 C 71.964844 49.789062 64.714844 45.140625 54.300781 45.125 C 54.300781 45.125 63.484375 47.410156 66.285156 48.925781 C 67.164062 49.402344 66.96875 49.515625 66.21875 49.726562 Z M 66.21875 49.726562 " fill-opacity="1" fill-rule="nonzero"/></g><g clip-path="url(#e96d768247)"><path fill="#00a86b" d="M 13.34375 48.5625 C 24.496094 45.410156 37.511719 48.140625 37.511719 48.140625 L 35.214844 46.410156 C 35.214844 46.410156 21.652344 42.425781 7.59375 48.503906 C 7.59375 48.503906 14.847656 53.152344 25.261719 53.164062 C 25.261719 53.164062 16.078125 50.878906 13.277344 49.367188 C 12.394531 48.890625 12.59375 48.777344 13.34375 48.5625 Z M 13.34375 48.5625 " fill-opacity="1" fill-rule="nonzero"/></g><g clip-path="url(#8fa1aef8dc)"><path fill="#00a86b" d="M 49.929688 55.097656 C 49.929688 55.097656 53.6875 60.359375 54.472656 62.390625 C 54.71875 63.03125 54.566406 63 54.082031 62.777344 C 46.886719 59.46875 41.335938 52.273438 41.335938 52.273438 L 41.761719 54.191406 C 41.761719 54.191406 47.039062 62.28125 57.039062 65.359375 C 57.042969 65.359375 55.335938 59.726562 49.929688 55.097656 Z M 49.929688 55.097656 " fill-opacity="1" fill-rule="nonzero"/></g><g clip-path="url(#40630301a0)"><path fill="#00a86b" d="M 26.761719 62.757812 C 26.277344 62.984375 26.125 63.011719 26.367188 62.371094 C 27.136719 60.335938 30.851562 55.046875 30.851562 55.046875 C 25.484375 59.714844 23.820312 65.359375 23.820312 65.359375 C 33.800781 62.207031 39.015625 54.074219 39.015625 54.074219 L 39.425781 52.152344 C 39.425781 52.152344 33.929688 59.390625 26.761719 62.757812 Z M 26.761719 62.757812 " fill-opacity="1" fill-rule="nonzero"/></g><g fill="#ffffff" fill-opacity="1"><g transform="translate(76.95838, 48.564501)"><g><path d="M 14.46875 -28.515625 C 13.46875 -28.460938 12.738281 -28.351562 12.28125 -28.1875 C 11.832031 -28.019531 11.523438 -27.703125 11.359375 -27.234375 C 11.191406 -26.765625 11.109375 -26.003906 11.109375 -24.953125 L 11.109375 -3.890625 C 11.109375 -3.003906 11.175781 -2.363281 11.3125 -1.96875 C 11.457031 -1.570312 11.703125 -1.300781 12.046875 -1.15625 C 12.390625 -1.019531 12.945312 -0.953125 13.71875 -0.953125 L 15.75 -0.953125 C 17.632812 -0.953125 19.257812 -1.796875 20.625 -3.484375 C 21.988281 -5.171875 22.878906 -7.410156 23.296875 -10.203125 L 24.25 -10.203125 C 24.164062 -9.253906 24.125 -8.035156 24.125 -6.546875 C 24.125 -3.890625 24.222656 -1.707031 24.421875 0 C 22.535156 -0.0820312 19.367188 -0.125 14.921875 -0.125 C 8.898438 -0.125 4.394531 -0.0820312 1.40625 0 L 1.40625 -0.828125 C 2.320312 -0.878906 2.992188 -0.988281 3.421875 -1.15625 C 3.847656 -1.320312 4.132812 -1.640625 4.28125 -2.109375 C 4.4375 -2.578125 4.515625 -3.335938 4.515625 -4.390625 L 4.515625 -24.953125 C 4.515625 -26.003906 4.4375 -26.765625 4.28125 -27.234375 C 4.132812 -27.703125 3.847656 -28.019531 3.421875 -28.1875 C 2.992188 -28.351562 2.320312 -28.460938 1.40625 -28.515625 L 1.40625 -29.34375 C 2.820312 -29.257812 5.003906 -29.21875 7.953125 -29.21875 C 10.773438 -29.21875 12.945312 -29.257812 14.46875 -29.34375 Z M 14.46875 -28.515625 "/></g></g></g><g fill="#ffffff" fill-opacity="1"><g transform="translate(102.287954, 48.564501)"><g><path d="M 25.328125 -3.484375 C 25.679688 -2.566406 26.09375 -1.898438 26.5625 -1.484375 C 27.039062 -1.078125 27.5 -0.859375 27.9375 -0.828125 L 27.9375 0 C 26.28125 -0.0820312 24.179688 -0.125 21.640625 -0.125 C 18.816406 -0.125 16.71875 -0.0820312 15.34375 0 L 15.34375 -0.828125 C 16.382812 -0.878906 17.125 -1.007812 17.5625 -1.21875 C 18.007812 -1.425781 18.234375 -1.796875 18.234375 -2.328125 C 18.234375 -2.816406 18.066406 -3.476562 17.734375 -4.3125 L 15.25 -11.109375 L 6.21875 -11.109375 L 5.140625 -8.25 C 4.367188 -6.257812 3.984375 -4.722656 3.984375 -3.640625 C 3.984375 -2.617188 4.289062 -1.90625 4.90625 -1.5 C 5.53125 -1.101562 6.453125 -0.878906 7.671875 -0.828125 L 7.671875 0 C 5.785156 -0.0820312 4.070312 -0.125 2.53125 -0.125 C 1.257812 -0.125 0.207031 -0.0820312 -0.625 0 L -0.625 -0.828125 C 0.726562 -1.078125 1.914062 -2.53125 2.9375 -5.1875 L 12.390625 -29.4375 C 12.691406 -29.40625 13.175781 -29.390625 13.84375 -29.390625 C 14.507812 -29.390625 14.976562 -29.40625 15.25 -29.4375 Z M 14.96875 -11.9375 L 10.859375 -23.125 L 6.546875 -11.9375 Z M 14.96875 -11.9375 "/></g></g></g><g fill="#ffffff" fill-opacity="1"><g transform="translate(129.939088, 48.564501)"><g><path d="M 16.171875 -15.421875 C 19.765625 -15.140625 22.398438 -14.304688 24.078125 -12.921875 C 25.765625 -11.546875 26.609375 -9.921875 26.609375 -8.046875 C 26.609375 -5.472656 25.597656 -3.488281 23.578125 -2.09375 C 21.566406 -0.695312 18.765625 0 15.171875 0 C 14.367188 0 13.691406 -0.015625 13.140625 -0.046875 C 11.316406 -0.0976562 9.535156 -0.125 7.796875 -0.125 C 4.953125 -0.125 2.820312 -0.0820312 1.40625 0 L 1.40625 -0.828125 C 2.320312 -0.878906 2.992188 -0.988281 3.421875 -1.15625 C 3.847656 -1.320312 4.132812 -1.640625 4.28125 -2.109375 C 4.4375 -2.578125 4.515625 -3.335938 4.515625 -4.390625 L 4.515625 -24.953125 C 4.515625 -26.003906 4.4375 -26.765625 4.28125 -27.234375 C 4.132812 -27.703125 3.847656 -28.019531 3.421875 -28.1875 C 2.992188 -28.351562 2.320312 -28.460938 1.40625 -28.515625 L 1.40625 -29.34375 C 2.820312 -29.257812 4.921875 -29.21875 7.703125 -29.21875 L 12.3125 -29.265625 C 12.863281 -29.296875 13.5 -29.3125 14.21875 -29.3125 C 17.53125 -29.3125 20.0625 -28.71875 21.8125 -27.53125 C 23.570312 -26.34375 24.453125 -24.765625 24.453125 -22.796875 C 24.453125 -21.191406 23.753906 -19.695312 22.359375 -18.3125 C 20.960938 -16.9375 18.898438 -16 16.171875 -15.5 Z M 13.671875 -28.515625 C 12.929688 -28.515625 12.390625 -28.414062 12.046875 -28.21875 C 11.703125 -28.03125 11.457031 -27.6875 11.3125 -27.1875 C 11.175781 -26.695312 11.109375 -25.953125 11.109375 -24.953125 L 11.109375 -15.59375 L 12.890625 -15.59375 C 14.691406 -15.59375 15.945312 -16.207031 16.65625 -17.4375 C 17.375 -18.664062 17.734375 -20.300781 17.734375 -22.34375 C 17.734375 -24.414062 17.410156 -25.960938 16.765625 -26.984375 C 16.117188 -28.003906 15.085938 -28.515625 13.671875 -28.515625 Z M 13.96875 -0.953125 C 17.8125 -0.953125 19.734375 -3.367188 19.734375 -8.203125 C 19.734375 -10.390625 19.179688 -12.046875 18.078125 -13.171875 C 16.972656 -14.304688 15.226562 -14.875 12.84375 -14.875 L 11.109375 -14.875 L 11.109375 -4.390625 C 11.109375 -3.398438 11.175781 -2.671875 11.3125 -2.203125 C 11.457031 -1.734375 11.726562 -1.40625 12.125 -1.21875 C 12.519531 -1.039062 13.132812 -0.953125 13.96875 -0.953125 Z M 13.96875 -0.953125 "/></g></g></g><g fill="#ffffff" fill-opacity="1"><g transform="translate(157.797491, 48.564501)"><g><path d="M 23.09375 -28.515625 L 8.90625 -0.953125 L 13.21875 -0.953125 C 15.375 -0.953125 17.285156 -1.671875 18.953125 -3.109375 C 20.628906 -4.546875 21.632812 -6.828125 21.96875 -9.953125 L 22.921875 -9.953125 C 22.835938 -9.015625 22.796875 -7.796875 22.796875 -6.296875 C 22.796875 -3.753906 22.894531 -1.65625 23.09375 0 C 21.039062 -0.0820312 17.597656 -0.125 12.765625 -0.125 C 7.628906 -0.125 3.910156 -0.0820312 1.609375 0 L 1.609375 -0.828125 L 15.828125 -28.390625 L 11.359375 -28.390625 C 9.085938 -28.390625 7.226562 -27.738281 5.78125 -26.4375 C 4.332031 -25.144531 3.425781 -22.960938 3.0625 -19.890625 L 2.109375 -19.890625 C 2.191406 -20.691406 2.234375 -21.742188 2.234375 -23.046875 C 2.234375 -24.898438 2.140625 -27 1.953125 -29.34375 C 3.773438 -29.257812 6.882812 -29.21875 11.28125 -29.21875 C 16.71875 -29.21875 20.65625 -29.257812 23.09375 -29.34375 Z M 23.09375 -28.515625 "/></g></g></g><g fill="#ffffff" fill-opacity="1"><g transform="translate(182.753958, 48.564501)"><g><path d="M 24.125 -6.296875 C 24.125 -3.753906 24.222656 -1.65625 24.421875 0 C 22.535156 -0.0820312 19.367188 -0.125 14.921875 -0.125 C 8.898438 -0.125 4.394531 -0.0820312 1.40625 0 L 1.40625 -0.828125 C 2.320312 -0.878906 2.992188 -0.988281 3.421875 -1.15625 C 3.847656 -1.320312 4.132812 -1.640625 4.28125 -2.109375 C 4.4375 -2.578125 4.515625 -3.335938 4.515625 -4.390625 L 4.515625 -24.953125 C 4.515625 -26.003906 4.4375 -26.765625 4.28125 -27.234375 C 4.132812 -27.703125 3.847656 -28.019531 3.421875 -28.1875 C 2.992188 -28.351562 2.320312 -28.460938 1.40625 -28.515625 L 1.40625 -29.34375 C 4.394531 -29.257812 8.898438 -29.21875 14.921875 -29.21875 C 18.984375 -29.21875 21.875 -29.257812 23.59375 -29.34375 C 23.394531 -27.050781 23.296875 -25.007812 23.296875 -23.21875 C 23.296875 -22 23.335938 -21.054688 23.421875 -20.390625 L 22.46875 -20.390625 C 22.050781 -23.347656 21.300781 -25.421875 20.21875 -26.609375 C 19.144531 -27.796875 17.628906 -28.390625 15.671875 -28.390625 L 13.96875 -28.390625 C 13.113281 -28.390625 12.492188 -28.320312 12.109375 -28.1875 C 11.722656 -28.050781 11.457031 -27.78125 11.3125 -27.375 C 11.175781 -26.976562 11.109375 -26.335938 11.109375 -25.453125 L 11.109375 -15.171875 L 12.4375 -15.171875 C 13.90625 -15.171875 15.015625 -15.707031 15.765625 -16.78125 C 16.523438 -17.863281 17.0625 -19.148438 17.375 -20.640625 L 18.328125 -20.640625 C 18.242188 -19.484375 18.203125 -18.1875 18.203125 -16.75 L 18.203125 -14.75 C 18.203125 -13.34375 18.285156 -11.382812 18.453125 -8.875 L 17.5 -8.875 C 16.914062 -12.519531 15.226562 -14.34375 12.4375 -14.34375 L 11.109375 -14.34375 L 11.109375 -3.890625 C 11.109375 -3.003906 11.175781 -2.363281 11.3125 -1.96875 C 11.457031 -1.570312 11.722656 -1.300781 12.109375 -1.15625 C 12.492188 -1.019531 13.113281 -0.953125 13.96875 -0.953125 L 16 -0.953125 C 17.957031 -0.953125 19.535156 -1.617188 20.734375 -2.953125 C 21.941406 -4.296875 22.796875 -6.570312 23.296875 -9.78125 L 24.25 -9.78125 C 24.164062 -8.875 24.125 -7.710938 24.125 -6.296875 Z M 24.125 -6.296875 "/></g></g></g><g fill="#ffffff" fill-opacity="1"><g transform="translate(209.037016, 48.564501)"><g><path d="M 11.109375 -11.859375 L 11.109375 -4.640625 C 11.109375 -3.535156 11.222656 -2.726562 11.453125 -2.21875 C 11.691406 -1.707031 12.109375 -1.367188 12.703125 -1.203125 C 13.296875 -1.035156 14.242188 -0.9375 15.546875 -0.90625 L 15.546875 0 C 12.148438 -0.0820312 9.617188 -0.125 7.953125 -0.125 C 6.578125 -0.125 4.835938 -0.0976562 2.734375 -0.046875 L 1.40625 0 L 1.40625 -0.828125 C 2.320312 -0.878906 2.992188 -0.988281 3.421875 -1.15625 C 3.847656 -1.320312 4.132812 -1.640625 4.28125 -2.109375 C 4.4375 -2.578125 4.515625 -3.335938 4.515625 -4.390625 L 4.515625 -24.953125 C 4.515625 -26.003906 4.4375 -26.765625 4.28125 -27.234375 C 4.132812 -27.703125 3.847656 -28.019531 3.421875 -28.1875 C 2.992188 -28.351562 2.320312 -28.460938 1.40625 -28.515625 L 1.40625 -29.34375 C 2.820312 -29.257812 4.921875 -29.21875 7.703125 -29.21875 L 12.3125 -29.265625 C 12.863281 -29.296875 13.5 -29.3125 14.21875 -29.3125 C 17.945312 -29.3125 20.789062 -28.570312 22.75 -27.09375 C 24.71875 -25.613281 25.703125 -23.628906 25.703125 -21.140625 C 25.703125 -19.617188 25.3125 -18.160156 24.53125 -16.765625 C 23.757812 -15.367188 22.453125 -14.203125 20.609375 -13.265625 C 18.773438 -12.328125 16.34375 -11.859375 13.3125 -11.859375 Z M 13.671875 -28.515625 C 12.929688 -28.515625 12.390625 -28.414062 12.046875 -28.21875 C 11.703125 -28.03125 11.457031 -27.6875 11.3125 -27.1875 C 11.175781 -26.695312 11.109375 -25.953125 11.109375 -24.953125 L 11.109375 -12.6875 L 12.890625 -12.6875 C 15.128906 -12.6875 16.675781 -13.40625 17.53125 -14.84375 C 18.382812 -16.28125 18.8125 -18.226562 18.8125 -20.6875 C 18.8125 -23.363281 18.414062 -25.335938 17.625 -26.609375 C 16.84375 -27.878906 15.523438 -28.515625 13.671875 -28.515625 Z M 13.671875 -28.515625 "/></g></g></g><g fill="#ffffff" fill-opacity="1"><g transform="translate(235.610261, 48.564501)"><g><path d="M 11.109375 -11.859375 L 11.109375 -4.640625 C 11.109375 -3.535156 11.222656 -2.726562 11.453125 -2.21875 C 11.691406 -1.707031 12.109375 -1.367188 12.703125 -1.203125 C 13.296875 -1.035156 14.242188 -0.9375 15.546875 -0.90625 L 15.546875 0 C 12.148438 -0.0820312 9.617188 -0.125 7.953125 -0.125 C 6.578125 -0.125 4.835938 -0.0976562 2.734375 -0.046875 L 1.40625 0 L 1.40625 -0.828125 C 2.320312 -0.878906 2.992188 -0.988281 3.421875 -1.15625 C 3.847656 -1.320312 4.132812 -1.640625 4.28125 -2.109375 C 4.4375 -2.578125 4.515625 -3.335938 4.515625 -4.390625 L 4.515625 -24.953125 C 4.515625 -26.003906 4.4375 -26.765625 4.28125 -27.234375 C 4.132812 -27.703125 3.847656 -28.019531 3.421875 -28.1875 C 2.992188 -28.351562 2.320312 -28.460938 1.40625 -28.515625 L 1.40625 -29.34375 C 2.820312 -29.257812 4.921875 -29.21875 7.703125 -29.21875 L 12.3125 -29.265625 C 12.863281 -29.296875 13.5 -29.3125 14.21875 -29.3125 C 17.945312 -29.3125 20.789062 -28.570312 22.75 -27.09375 C 24.71875 -25.613281 25.703125 -23.628906 25.703125 -21.140625 C 25.703125 -19.617188 25.3125 -18.160156 24.53125 -16.765625 C 23.757812 -15.367188 22.453125 -14.203125 20.609375 -13.265625 C 18.773438 -12.328125 16.34375 -11.859375 13.3125 -11.859375 Z M 13.671875 -28.515625 C 12.929688 -28.515625 12.390625 -28.414062 12.046875 -28.21875 C 11.703125 -28.03125 11.457031 -27.6875 11.3125 -27.1875 C 11.175781 -26.695312 11.109375 -25.953125 11.109375 -24.953125 L 11.109375 -12.6875 L 12.890625 -12.6875 C 15.128906 -12.6875 16.675781 -13.40625 17.53125 -14.84375 C 18.382812 -16.28125 18.8125 -18.226562 18.8125 -20.6875 C 18.8125 -23.363281 18.414062 -25.335938 17.625 -26.609375 C 16.84375 -27.878906 15.523438 -28.515625 13.671875 -28.515625 Z M 13.671875 -28.515625 "/></g></g></g><g fill="#ffffff" fill-opacity="1"><g transform="translate(262.183507, 48.564501)"><g><path d="M 24.125 -6.296875 C 24.125 -3.753906 24.222656 -1.65625 24.421875 0 C 22.535156 -0.0820312 19.367188 -0.125 14.921875 -0.125 C 8.898438 -0.125 4.394531 -0.0820312 1.40625 0 L 1.40625 -0.828125 C 2.320312 -0.878906 2.992188 -0.988281 3.421875 -1.15625 C 3.847656 -1.320312 4.132812 -1.640625 4.28125 -2.109375 C 4.4375 -2.578125 4.515625 -3.335938 4.515625 -4.390625 L 4.515625 -24.953125 C 4.515625 -26.003906 4.4375 -26.765625 4.28125 -27.234375 C 4.132812 -27.703125 3.847656 -28.019531 3.421875 -28.1875 C 2.992188 -28.351562 2.320312 -28.460938 1.40625 -28.515625 L 1.40625 -29.34375 C 4.394531 -29.257812 8.898438 -29.21875 14.921875 -29.21875 C 18.984375 -29.21875 21.875 -29.257812 23.59375 -29.34375 C 23.394531 -27.050781 23.296875 -25.007812 23.296875 -23.21875 C 23.296875 -22 23.335938 -21.054688 23.421875 -20.390625 L 22.46875 -20.390625 C 22.050781 -23.347656 21.300781 -25.421875 20.21875 -26.609375 C 19.144531 -27.796875 17.628906 -28.390625 15.671875 -28.390625 L 13.96875 -28.390625 C 13.113281 -28.390625 12.492188 -28.320312 12.109375 -28.1875 C 11.722656 -28.050781 11.457031 -27.78125 11.3125 -27.375 C 11.175781 -26.976562 11.109375 -26.335938 11.109375 -25.453125 L 11.109375 -15.171875 L 12.4375 -15.171875 C 13.90625 -15.171875 15.015625 -15.707031 15.765625 -16.78125 C 16.523438 -17.863281 17.0625 -19.148438 17.375 -20.640625 L 18.328125 -20.640625 C 18.242188 -19.484375 18.203125 -18.1875 18.203125 -16.75 L 18.203125 -14.75 C 18.203125 -13.34375 18.285156 -11.382812 18.453125 -8.875 L 17.5 -8.875 C 16.914062 -12.519531 15.226562 -14.34375 12.4375 -14.34375 L 11.109375 -14.34375 L 11.109375 -3.890625 C 11.109375 -3.003906 11.175781 -2.363281 11.3125 -1.96875 C 11.457031 -1.570312 11.722656 -1.300781 12.109375 -1.15625 C 12.492188 -1.019531 13.113281 -0.953125 13.96875 -0.953125 L 16 -0.953125 C 17.957031 -0.953125 19.535156 -1.617188 20.734375 -2.953125 C 21.941406 -4.296875 22.796875 -6.570312 23.296875 -9.78125 L 24.25 -9.78125 C 24.164062 -8.875 24.125 -7.710938 24.125 -6.296875 Z M 24.125 -6.296875 "/></g></g></g><g fill="#ffffff" fill-opacity="1"><g transform="translate(288.466565, 48.564501)"><g><path d="M 14.46875 -28.515625 C 13.46875 -28.460938 12.738281 -28.351562 12.28125 -28.1875 C 11.832031 -28.019531 11.523438 -27.703125 11.359375 -27.234375 C 11.191406 -26.765625 11.109375 -26.003906 11.109375 -24.953125 L 11.109375 -3.890625 C 11.109375 -3.003906 11.175781 -2.363281 11.3125 -1.96875 C 11.457031 -1.570312 11.703125 -1.300781 12.046875 -1.15625 C 12.390625 -1.019531 12.945312 -0.953125 13.71875 -0.953125 L 15.75 -0.953125 C 17.632812 -0.953125 19.257812 -1.796875 20.625 -3.484375 C 21.988281 -5.171875 22.878906 -7.410156 23.296875 -10.203125 L 24.25 -10.203125 C 24.164062 -9.253906 24.125 -8.035156 24.125 -6.546875 C 24.125 -3.890625 24.222656 -1.707031 24.421875 0 C 22.535156 -0.0820312 19.367188 -0.125 14.921875 -0.125 C 8.898438 -0.125 4.394531 -0.0820312 1.40625 0 L 1.40625 -0.828125 C 2.320312 -0.878906 2.992188 -0.988281 3.421875 -1.15625 C 3.847656 -1.320312 4.132812 -1.640625 4.28125 -2.109375 C 4.4375 -2.578125 4.515625 -3.335938 4.515625 -4.390625 L 4.515625 -24.953125 C 4.515625 -26.003906 4.4375 -26.765625 4.28125 -27.234375 C 4.132812 -27.703125 3.847656 -28.019531 3.421875 -28.1875 C 2.992188 -28.351562 2.320312 -28.460938 1.40625 -28.515625 L 1.40625 -29.34375 C 2.820312 -29.257812 5.003906 -29.21875 7.953125 -29.21875 C 10.773438 -29.21875 12.945312 -29.257812 14.46875 -29.34375 Z M 14.46875 -28.515625 "/></g></g></g><g fill="#ffffff" fill-opacity="1"><g transform="translate(313.796138, 48.564501)"><g><path d="M 14.21875 -28.515625 C 13.28125 -28.460938 12.601562 -28.351562 12.1875 -28.1875 C 11.769531 -28.019531 11.484375 -27.703125 11.328125 -27.234375 C 11.179688 -26.765625 11.109375 -26.003906 11.109375 -24.953125 L 11.109375 -4.390625 C 11.109375 -3.335938 11.179688 -2.578125 11.328125 -2.109375 C 11.484375 -1.640625 11.769531 -1.320312 12.1875 -1.15625 C 12.601562 -0.988281 13.28125 -0.878906 14.21875 -0.828125 L 14.21875 0 C 12.726562 -0.0820312 10.640625 -0.125 7.953125 -0.125 C 5.003906 -0.125 2.820312 -0.0820312 1.40625 0 L 1.40625 -0.828125 C 2.320312 -0.878906 2.992188 -0.988281 3.421875 -1.15625 C 3.847656 -1.320312 4.132812 -1.640625 4.28125 -2.109375 C 4.4375 -2.578125 4.515625 -3.335938 4.515625 -4.390625 L 4.515625 -24.953125 C 4.515625 -26.003906 4.4375 -26.765625 4.28125 -27.234375 C 4.132812 -27.703125 3.847656 -28.019531 3.421875 -28.1875 C 2.992188 -28.351562 2.320312 -28.460938 1.40625 -28.515625 L 1.40625 -29.34375 C 2.820312 -29.257812 5.003906 -29.21875 7.953125 -29.21875 C 10.640625 -29.21875 12.726562 -29.257812 14.21875 -29.34375 Z M 14.21875 -28.515625 "/></g></g></g><g fill="#ffffff" fill-opacity="1"><g transform="translate(329.383605, 48.564501)"><g><path d="M 28.734375 -28.515625 C 27.816406 -28.378906 27.144531 -28.144531 26.71875 -27.8125 C 26.289062 -27.476562 26 -26.953125 25.84375 -26.234375 C 25.695312 -25.515625 25.625 -24.453125 25.625 -23.046875 L 25.625 0.078125 L 24.625 0.046875 L 23.5 0.078125 L 5.515625 -22.71875 L 5.515625 -6.796875 C 5.515625 -5.171875 5.597656 -3.976562 5.765625 -3.21875 C 5.929688 -2.457031 6.289062 -1.898438 6.84375 -1.546875 C 7.394531 -1.203125 8.289062 -0.960938 9.53125 -0.828125 L 9.53125 0 C 8.457031 -0.0820312 6.96875 -0.125 5.0625 -0.125 C 3.539062 -0.125 2.335938 -0.0820312 1.453125 0 L 1.453125 -0.828125 C 2.359375 -0.960938 3.023438 -1.195312 3.453125 -1.53125 C 3.890625 -1.863281 4.179688 -2.390625 4.328125 -3.109375 C 4.484375 -3.828125 4.5625 -4.890625 4.5625 -6.296875 L 4.5625 -24.953125 C 4.5625 -26.003906 4.484375 -26.765625 4.328125 -27.234375 C 4.179688 -27.703125 3.890625 -28.019531 3.453125 -28.1875 C 3.023438 -28.351562 2.359375 -28.460938 1.453125 -28.515625 L 1.453125 -29.34375 C 2.335938 -29.257812 3.539062 -29.21875 5.0625 -29.21875 C 6.4375 -29.21875 7.625 -29.257812 8.625 -29.34375 L 24.671875 -9.578125 L 24.671875 -22.546875 C 24.671875 -24.179688 24.585938 -25.378906 24.421875 -26.140625 C 24.253906 -26.898438 23.894531 -27.453125 23.34375 -27.796875 C 22.789062 -28.140625 21.890625 -28.378906 20.640625 -28.515625 L 20.640625 -29.34375 C 21.722656 -29.257812 23.21875 -29.21875 25.125 -29.21875 C 26.664062 -29.21875 27.867188 -29.257812 28.734375 -29.34375 Z M 28.734375 -28.515625 "/></g></g></g></svg>